<?xml version="1.0" encoding="UTF-8"?><svg xmlns="http://www.w3.org/2000/svg" viewBox="0 0 1024 1024"><defs><style>.c{stroke:#29abe2;stroke-miterlimit:10;stroke-width:10px;}.c,.d,.e{fill:#29abe2;}.d{font-family:BaiJamjuree-Regular, 'Bai Jamjuree';font-size:150px;}.e,.f{stroke-width:0px;}.f{fill:#dff;}</style></defs><g id="a"><rect class="f" x="0" width="1024" height="1024"/></g><g id="b"><text class="d" transform="translate(193.33 527.15)"><tspan x="0" y="0">Ice Tetris</tspan></text><line class="c" x1="64" y1="484.15" x2="130.15" y2="484.15"/><line class="c" x1="893.85" y1="484.15" x2="960" y2="484.15"/><polygon class="e" points="128 704 128 768 192 768 192 832 256 832 256 768 320 768 320 832 384 832 384 768 512 768 512 896 576 896 576 832 640 832 640 768 832 768 832 704 1024 704 1024 1024 0 1024 0 704 128 704"/></g></svg>